REM DIRINDEX 1\2\6,1\2\7,1\2\8,1\2\9,1\3\10,1\3\11,1\4\12,1\4\13,1\4\14,1\5\15,1\5\16,1\5\17
REM DIRNAME folder01,folder02,folder03,folder04,folder05,folder06,folder07,folder08,folder09,folder10,folder11,folder12,folder13,folder14,folder15,folder16,folder17
TITLE ""
FILE "1400_2_sec14_1384_1400.mp3" MP3
  TRACK 01 AUDIO
    TITLE "0:"
    INDEX 01 00:00:00
  TRACK 02 AUDIO
    TITLE "13:cjc029_4391"
    INDEX 01 00:00:19
  TRACK 03 AUDIO
    TITLE "0:"
    INDEX 01 00:01:21
  TRACK 04 AUDIO
    TITLE "14:cjc029_4392"
    INDEX 01 00:01:36
  TRACK 05 AUDIO
    TITLE "0:"
    INDEX 01 00:05:34
  TRACK 06 AUDIO
    TITLE "13:cjc029_4393"
    INDEX 01 00:06:16
  TRACK 07 AUDIO
    TITLE "0:"
    INDEX 01 00:07:39
  TRACK 08 AUDIO
    TITLE "14:cjc029_4394"
    INDEX 01 00:07:45
  TRACK 09 AUDIO
    TITLE "0:"
    INDEX 01 00:09:45
  TRACK 10 AUDIO
    TITLE "13:cjc029_4395"
    INDEX 01 00:10:25
  TRACK 11 AUDIO
    TITLE "0:"
    INDEX 01 00:11:46
  TRACK 12 AUDIO
    TITLE "14:cjc029_4396"
    INDEX 01 00:11:48
  TRACK 13 AUDIO
    TITLE "0:"
    INDEX 01 00:13:04
  TRACK 14 AUDIO
    TITLE "13:cjc029_4397"
    INDEX 01 00:13:65
  TRACK 15 AUDIO
    TITLE "0:"
    INDEX 01 00:15:28
  TRACK 16 AUDIO
    TITLE "14:cjc029_4398"
    INDEX 01 00:15:34
  TRACK 17 AUDIO
    TITLE "0:"
    INDEX 01 00:18:01
  TRACK 18 AUDIO
    TITLE "13:cjc029_4399"
    INDEX 01 00:18:62
  TRACK 19 AUDIO
    TITLE "0:"
    INDEX 01 00:20:10
  TRACK 20 AUDIO
    TITLE "14:cjc029_4400"
    INDEX 01 00:20:16
  TRACK 21 AUDIO
    TITLE "0:"
    INDEX 01 00:23:28
  TRACK 22 AUDIO
    TITLE "13:cjc029_4401"
    INDEX 01 00:24:08
  TRACK 23 AUDIO
    TITLE "0:"
    INDEX 01 00:25:25
  TRACK 24 AUDIO
    TITLE "14:cjc029_4402"
    INDEX 01 00:25:29
  TRACK 25 AUDIO
    TITLE "0:"
    INDEX 01 00:28:33
  TRACK 26 AUDIO
    TITLE "13:cjc029_4403"
    INDEX 01 00:29:25
  TRACK 27 AUDIO
    TITLE "0:"
    INDEX 01 00:30:28
  TRACK 28 AUDIO
    TITLE "14:cjc029_4404"
    INDEX 01 00:30:32
  TRACK 29 AUDIO
    TITLE "0:"
    INDEX 01 00:33:01
  TRACK 30 AUDIO
    TITLE "13:cjc029_4405"
    INDEX 01 00:33:56
  TRACK 31 AUDIO
    TITLE "0:"
    INDEX 01 00:35:15
  TRACK 32 AUDIO
    TITLE "14:cjc029_4406"
    INDEX 01 00:35:19
  TRACK 33 AUDIO
    TITLE "0:"
    INDEX 01 00:38:10
  TRACK 34 AUDIO
    TITLE "13:cjc029_4407"
    INDEX 01 00:38:69
  TRACK 35 AUDIO
    TITLE "0:"
    INDEX 01 00:40:19
  TRACK 36 AUDIO
    TITLE "14:cjc029_4408"
    INDEX 01 00:40:23
  TRACK 37 AUDIO
    TITLE "0:"
    INDEX 01 00:44:07
  TRACK 38 AUDIO
    TITLE "13:cjc029_4409"
    INDEX 01 00:44:63
  TRACK 39 AUDIO
    TITLE "0:"
    INDEX 01 00:46:04
  TRACK 40 AUDIO
    TITLE "14:cjc029_4410"
    INDEX 01 00:46:07
  TRACK 41 AUDIO
    TITLE "0:"
    INDEX 01 00:50:37
  TRACK 42 AUDIO
    TITLE "13:cjc029_4411"
    INDEX 01 00:51:18
  TRACK 43 AUDIO
    TITLE "0:"
    INDEX 01 00:52:43
  TRACK 44 AUDIO
    TITLE "14:cjc029_4412"
    INDEX 01 00:52:47
  TRACK 45 AUDIO
    TITLE "0:"
    INDEX 01 00:55:18
  TRACK 46 AUDIO
    TITLE "13:cjc029_4413"
    INDEX 01 00:56:00
  TRACK 47 AUDIO
    TITLE "0:"
    INDEX 01 00:57:11
  TRACK 48 AUDIO
    TITLE "14:cjc029_4414"
    INDEX 01 00:57:15
  TRACK 49 AUDIO
    TITLE "0:"
    INDEX 01 00:59:16
  TRACK 50 AUDIO
    TITLE "13:cjc029_4415"
    INDEX 01 01:00:00
  TRACK 51 AUDIO
    TITLE "0:"
    INDEX 01 01:01:19
  TRACK 52 AUDIO
    TITLE "14:cjc029_4416"
    INDEX 01 01:01:25
  TRACK 53 AUDIO
    TITLE "0:"
    INDEX 01 01:03:55
  TRACK 54 AUDIO
    TITLE "13:cjc029_4417"
    INDEX 01 01:04:43
  TRACK 55 AUDIO
    TITLE "0:"
    INDEX 01 01:05:46
  TRACK 56 AUDIO
    TITLE "14:cjc029_4418"
    INDEX 01 01:05:52
  TRACK 57 AUDIO
    TITLE "0:"
    INDEX 01 01:07:14
  TRACK 58 AUDIO
    TITLE "13:cjc029_4419"
    INDEX 01 01:07:70
  TRACK 59 AUDIO
    TITLE "0:"
    INDEX 01 01:09:05
  TRACK 60 AUDIO
    TITLE "14:cjc029_4420"
    INDEX 01 01:09:09
  TRACK 61 AUDIO
    TITLE "0:"
    INDEX 01 01:10:35
  TRACK 62 AUDIO
    TITLE "13:cjc029_4421"
    INDEX 01 01:11:17
  TRACK 63 AUDIO
    TITLE "0:"
    INDEX 01 01:12:38
  TRACK 64 AUDIO
    TITLE "14:cjc029_4422"
    INDEX 01 01:12:46
  TRACK 65 AUDIO
    TITLE "0:"
    INDEX 01 01:13:61
  TRACK 66 AUDIO
    TITLE "13:cjc029_4423"
    INDEX 01 01:14:43
  TRACK 67 AUDIO
    TITLE "0:"
    INDEX 01 01:15:66
  TRACK 68 AUDIO
    TITLE "14:cjc029_4424"
    INDEX 01 01:15:72
  TRACK 69 AUDIO
    TITLE "0:"
    INDEX 01 01:18:49
